<?xml version="1.0" encoding="utf-8"?>
<!-- Generator: Adobe Illustrator 27.0.1, SVG Export Plug-In . SVG Version: 6.00 Build 0)  -->
<svg version="1.1" id="Layer_1" xmlns="http://www.w3.org/2000/svg" xmlns:xlink="http://www.w3.org/1999/xlink" x="0px" y="0px"
	 viewBox="0 0 50 100" style="enable-background:new 0 0 50 100;" xml:space="preserve">
<style type="text/css">
	.st0{fill:#21262D;}
	.st1{fill:#e6edf3;}
</style>
<g>
	<g id="back-39_00000118375214533960511230000000596394045743036046_">
		<path class="st0" d="M0,39.4C0,34.2,4.2,30,9.4,30h21.2c5.2,0,9.4,4.2,9.4,9.4v21.2c0,5.2-4.2,9.4-9.4,9.4H9.4
			C4.2,70,0,65.8,0,60.6V39.4z"/>
	</g>
	<g>
		<path class="st1" d="M27.8,42.8c-1.5-0.7-3-1.2-4.6-1.5c-0.2,0.4-0.4,0.8-0.6,1.2c-1.7-0.3-3.4-0.3-5.1,0
			c-0.1-0.4-0.4-0.8-0.6-1.2c-1.6,0.3-3.2,0.8-4.6,1.5c-2.9,4.4-3.7,8.7-3.3,13c1.9,1.5,3.8,2.3,5.6,2.9c0.5-0.6,0.8-1.3,1.2-2
			c-0.7-0.2-1.3-0.6-1.9-0.9c0.1-0.1,0.3-0.2,0.5-0.4c3.7,1.7,7.7,1.7,11.3,0c0.1,0.1,0.3,0.2,0.5,0.4c-0.6,0.4-1.3,0.7-1.9,0.9
			c0.3,0.7,0.8,1.4,1.2,2c1.8-0.6,3.7-1.5,5.7-2.9C31.5,50.8,30.3,46.6,27.8,42.8z M16.2,53.2c-1.1,0-2-1-2-2.3c0-1.3,0.9-2.3,2-2.3
			s2,1,2,2.3C18.3,52.1,17.4,53.2,16.2,53.2z M23.7,53.2c-1.1,0-2-1-2-2.3c0-1.3,0.9-2.3,2-2.3s2,1,2,2.3
			C25.7,52.1,24.8,53.2,23.7,53.2z"/>
	</g>
</g>
</svg>
