<?xml version="1.0" encoding="utf-8"?>
<!-- Generator: Adobe Illustrator 27.0.1, SVG Export Plug-In . SVG Version: 6.00 Build 0)  -->
<svg version="1.1" id="Layer_1" xmlns="http://www.w3.org/2000/svg" xmlns:xlink="http://www.w3.org/1999/xlink" x="0px" y="0px"
	 viewBox="0 0 85 85" style="enable-background:new 0 0 85 85;" xml:space="preserve">
<style type="text/css">
	.st0{fill:#E6EDF3;}
	.st1{fill:#0D1117;}
</style>
<g>
	<g id="back-39_00000118375214533960511230000000596394045743036046_">
		<path class="st0" d="M0,20C0,9,9,0,20,0h45c11,0,20,9,20,20v45c0,11-9,20-20,20H20C9,85,0,76,0,65V20z"/>
	</g>
	<g>
		<path class="st1" d="M59,27.2c-3.1-1.4-6.4-2.5-9.8-3.1c-0.4,0.8-0.9,1.8-1.3,2.6c-3.7-0.6-7.3-0.6-10.9,0
			c-0.3-0.8-0.8-1.8-1.3-2.6c-3.4,0.6-6.7,1.6-9.8,3.1c-6.2,9.4-7.9,18.5-7.1,27.6c4.1,3.1,8.1,4.9,12,6.2c1-1.3,1.8-2.8,2.6-4.2
			c-1.4-0.5-2.8-1.2-4.1-2c0.3-0.3,0.7-0.5,1-0.8c7.8,3.7,16.3,3.7,24.1,0c0.3,0.3,0.7,0.5,1,0.8c-1.3,0.8-2.7,1.4-4.1,2
			c0.7,1.5,1.6,2.9,2.6,4.2c3.9-1.2,7.9-3.1,12.1-6.2C67.1,44.3,64.4,35.2,59,27.2z M34.6,49.2c-2.4,0-4.3-2.2-4.3-4.9
			s1.9-4.9,4.3-4.9c2.4,0,4.3,2.2,4.3,4.9C38.9,47,37,49.2,34.6,49.2z M50.4,49.2c-2.4,0-4.3-2.2-4.3-4.9s1.9-4.9,4.3-4.9
			c2.4,0,4.3,2.2,4.3,4.9C54.7,47,52.8,49.2,50.4,49.2z"/>
	</g>
</g>
</svg>
