<?xml version="1.0" encoding="utf-8"?>
<!-- Generator: Adobe Illustrator 27.0.1, SVG Export Plug-In . SVG Version: 6.00 Build 0)  -->
<svg version="1.1" id="Layer_1" xmlns="http://www.w3.org/2000/svg" xmlns:xlink="http://www.w3.org/1999/xlink" x="0px" y="0px"
	 viewBox="0 0 50 100" style="enable-background:new 0 0 50 100;" xml:space="preserve">
<style type="text/css">
	.st0{fill:#21262D;}
	.st1{fill:#e6edf3;}
</style>
<g>
	<g id="back-39_00000133495366137461803830000004345841406267212943_">
		<path class="st0" d="M0,39.4C0,34.2,4.2,30,9.4,30h21.2c5.2,0,9.4,4.2,9.4,9.4v21.2c0,5.2-4.2,9.4-9.4,9.4H9.4
			C4.2,70,0,65.8,0,60.6V39.4z"/>
	</g>
	<g>
		<path class="st1" d="M13.9,58.4v-8.7l-2.7-2.5l-2.4-1.4v10.9c0,0.8,0.7,1.5,1.5,1.5H13.9z"/>
		<path class="st1" d="M26.1,58.4h3.6c0.8,0,1.5-0.7,1.5-1.5V45.9l-2.7,1.6l-2.4,2.3V58.4z"/>
		<polygon class="st1" points="13.9,49.7 13.5,46.4 13.9,43.1 20,47.7 26.1,43.1 26.5,46.2 26.1,49.7 20,54.3 		"/>
		<path class="st1" d="M26.1,43.1v6.6l5.1-3.8v-2c0-1.9-2.2-3-3.7-1.8L26.1,43.1z"/>
		<path class="st1" d="M8.8,45.9l2.3,1.8l2.7,2.1v-6.6l-1.4-1.1C11,40.9,8.8,42,8.8,43.9V45.9z"/>
	</g>
</g>
</svg>
