<?xml version="1.0" encoding="utf-8"?>
<!-- Generator: Adobe Illustrator 27.0.1, SVG Export Plug-In . SVG Version: 6.00 Build 0)  -->
<svg version="1.1" id="Layer_1" xmlns="http://www.w3.org/2000/svg" xmlns:xlink="http://www.w3.org/1999/xlink" x="0px" y="0px"
	 viewBox="0 0 60 100" style="enable-background:new 0 0 60 100;" xml:space="preserve">
<style type="text/css">
	.st0{fill:#21262D;}
	.st1{fill:#e6edf3;}
</style>
<g id="Instagram-3_00000034786099548603738500000006124286347339064461_">
	<g id="back-47_00000080928653030922291020000003829775674391568559_">
		<path class="st0" d="M0,39.4C0,34.2,4.2,30,9.4,30h21.2c5.2,0,9.4,4.2,9.4,9.4v21.2c0,5.2-4.2,9.4-9.4,9.4H9.4
			C4.2,70,0,65.8,0,60.6V39.4z"/>
	</g>
	<path class="st1" d="M20,40.8c3,0,3.3,0,4.5,0c0.7,0,1.4,0.1,2.1,0.4c1,0.4,1.7,1.1,2.1,2.1c0.2,0.7,0.4,1.4,0.4,2.1
		c0,1.2,0,1.6,0,4.5c0,3,0,3.3,0,4.5c0,0.7-0.1,1.4-0.4,2.1c-0.4,1-1.1,1.7-2.1,2.1c-0.7,0.2-1.4,0.4-2.1,0.4c-1.2,0-1.6,0-4.5,0
		s-3.3,0-4.5,0c-0.7,0-1.4-0.1-2.1-0.4c-1-0.4-1.7-1.1-2.1-2.1c-0.2-0.7-0.4-1.4-0.4-2.1c0-1.2,0-1.6,0-4.5c0-3,0-3.3,0-4.5
		c0-0.7,0.1-1.4,0.4-2.1c0.4-1,1.1-1.7,2.1-2.1c0.7-0.2,1.4-0.4,2.1-0.4C16.6,40.8,17,40.8,20,40.8 M20,38.8c-3.1,0-3.4,0-4.6,0
		c-0.9,0-1.8,0.2-2.7,0.5c-1.5,0.6-2.7,1.8-3.3,3.3c-0.3,0.9-0.5,1.8-0.5,2.7c0,1.2,0,1.6,0,4.6c0,3.1,0,3.4,0,4.6
		c0,0.9,0.2,1.8,0.5,2.7c0.6,1.5,1.8,2.7,3.3,3.3c0.9,0.3,1.8,0.5,2.7,0.5c1.2,0,1.6,0,4.6,0s3.4,0,4.6,0c0.9,0,1.8-0.2,2.7-0.5
		c1.5-0.6,2.7-1.8,3.3-3.3c0.3-0.9,0.5-1.8,0.5-2.7c0-1.2,0-1.6,0-4.6c0-3.1,0-3.4,0-4.6c0-0.9-0.2-1.8-0.5-2.7
		c-0.6-1.5-1.8-2.7-3.3-3.3c-0.9-0.3-1.8-0.5-2.7-0.5C23.4,38.8,23,38.8,20,38.8z"/>
	<path class="st1" d="M20,44.3c-3.2,0-5.7,2.6-5.7,5.7s2.6,5.7,5.7,5.7s5.7-2.6,5.7-5.7l0,0C25.7,46.8,23.2,44.3,20,44.3z M20,53.7
		c-2.1,0-3.7-1.7-3.7-3.7c0-2.1,1.7-3.7,3.7-3.7c2.1,0,3.7,1.7,3.7,3.7l0,0C23.7,52.1,22,53.7,20,53.7z"/>
	<circle class="st1" cx="26" cy="44" r="1.4"/>
</g>
</svg>
