<?xml version="1.0" encoding="utf-8"?>
<!-- Generator: Adobe Illustrator 27.0.1, SVG Export Plug-In . SVG Version: 6.00 Build 0)  -->
<svg version="1.1" id="Layer_1" xmlns="http://www.w3.org/2000/svg" xmlns:xlink="http://www.w3.org/1999/xlink" x="0px" y="0px"
	 viewBox="0 0 85 85" style="enable-background:new 0 0 85 85;" xml:space="preserve">
<style type="text/css">
	.st0{fill:#E6EDF3;}
	.st1{fill:#0D1117;}
</style>
<g id="Linkedin-5_00000119104054851274823640000000769925303215839873_">
	<g id="back-46_00000060004951799038943970000007068775903185670063_">
		<path class="st0" d="M0,20C0,9,9,0,20,0h45c11,0,20,9,20,20v45c0,11-9,20-20,20H20C9,85,0,76,0,65V20z"/>
	</g>
	<g id="Linkedin-6_00000047742632172987522920000015591135648777019281_">
		<g>
			<path class="st1" d="M19.3,34.4h9.9v31.7h-9.9V34.4z M24.2,18.6c3.2,0,5.7,2.6,5.7,5.7c0,3.2-2.6,5.7-5.7,5.7s-5.7-2.6-5.7-5.7
				c0,0,0,0,0,0C18.5,21.2,21.1,18.6,24.2,18.6"/>
			<path class="st1" d="M35.4,34.4h9.5v4.3H45c1.9-3.3,5.5-5.3,9.3-5.1c10,0,11.8,6.6,11.8,15.1v17.4h-9.9V50.7
				c0-3.7-0.1-8.4-5.1-8.4s-5.9,4-5.9,8.1v15.7h-9.8L35.4,34.4z"/>
		</g>
	</g>
</g>
</svg>
