<?xml version="1.0" encoding="utf-8"?>
<!-- Generator: Adobe Illustrator 27.0.1, SVG Export Plug-In . SVG Version: 6.00 Build 0)  -->
<svg version="1.1" id="Layer_1" xmlns="http://www.w3.org/2000/svg" xmlns:xlink="http://www.w3.org/1999/xlink" x="0px" y="0px"
	 viewBox="0 0 60 100" style="enable-background:new 0 0 60 100;" xml:space="preserve">
<style type="text/css">
	.st0{fill:#171B21;}
	.st1{fill:#e6edf3;}
</style>
<g id="Linkedin-5_00000119104054851274823640000000769925303215839873_">
	<g id="back-46_00000060004951799038943970000007068775903185670063_">
		<path class="st0" d="M0,39.4C0,34.2,4.2,30,9.4,30h21.2c5.2,0,9.4,4.2,9.4,9.4v21.2c0,5.2-4.2,9.4-9.4,9.4H9.4
			C4.2,70,0,65.8,0,60.6V39.4z"/>
	</g>
	<g id="Linkedin-6_00000047742632172987522920000015591135648777019281_">
		<g>
			<path class="st1" d="M9.1,46.2h4.7v14.9H9.1V46.2z M11.4,38.8c1.5,0,2.7,1.2,2.7,2.7c0,1.5-1.2,2.7-2.7,2.7s-2.7-1.2-2.7-2.7l0,0
				C8.7,40,9.9,38.8,11.4,38.8"/>
			<path class="st1" d="M16.6,46.2h4.5v2h0.1c0.9-1.6,2.6-2.5,4.4-2.4c4.7,0,5.6,3.1,5.6,7.1v8.2h-4.7v-7.2c0-1.7,0-4-2.4-4
				s-2.8,1.9-2.8,3.9v7.4h-4.6L16.6,46.2z"/>
		</g>
	</g>
</g>
</svg>
