<?xml version="1.0" encoding="utf-8"?>
<!-- Generator: Adobe Illustrator 27.0.1, SVG Export Plug-In . SVG Version: 6.00 Build 0)  -->
<svg version="1.1" id="Layer_1" xmlns="http://www.w3.org/2000/svg" xmlns:xlink="http://www.w3.org/1999/xlink" x="0px" y="0px"
	 viewBox="0 0 50 100" style="enable-background:new 0 0 50 100;" xml:space="preserve">
<style type="text/css">
	.st0{fill:#21262D;}
	.st1{fill:#e6edf3;}
</style>
<g>
	<g id="back-39_00000130624829069298226520000017541082356413253053_">
		<path class="st0" d="M0,39.4C0,34.2,4.2,30,9.4,30h21.2c5.2,0,9.4,4.2,9.4,9.4v21.2c0,5.2-4.2,9.4-9.4,9.4H9.4
			C4.2,70,0,65.8,0,60.6V39.4z"/>
	</g>
	<path class="st1" d="M29.2,40.5l-20,8c-0.7,0.2-0.6,1.2,0.1,1.4l5,1.6l2,6.4c0.1,0.5,0.8,0.7,1.2,0.3l3-2.7l5.6,4.1
		c0.4,0.3,1,0.1,1.2-0.4l3.9-16.7C31.4,41.1,30.3,40.1,29.2,40.5L29.2,40.5z M17.6,52.6l-0.7,3.8l-1.5-5.2L29.5,42L17.6,52.6z"/>
</g>
</svg>
