<?xml version="1.0" encoding="utf-8"?>
<!-- Generator: Adobe Illustrator 27.0.1, SVG Export Plug-In . SVG Version: 6.00 Build 0)  -->
<svg version="1.1" id="Layer_1" xmlns="http://www.w3.org/2000/svg" xmlns:xlink="http://www.w3.org/1999/xlink" x="0px" y="0px"
	 viewBox="0 0 85 85" style="enable-background:new 0 0 85 85;" xml:space="preserve">
<style type="text/css">
	.st0{fill:#E6EDF3;}
	.st1{fill:#0D1117;}
	@media (prefers-color-scheme: light) {
		.st0{fill:#0D1117;}
		.st1{fill:#E6EDF3;}
        }
</style>
<g>
	<g id="back-39_00000130624829069298226520000017541082356413253053_">
		<path class="st0" d="M0,20C0,9,9,0,20,0h45c11,0,20,9,20,20v45c0,11-9,20-20,20H20C9,85,0,76,0,65V20z"/>
	</g>
	<path class="st1" d="M62.1,22.4L19.7,39.3c-1.4,0.5-1.2,2.5,0.2,2.9l10.7,3.4L34.8,59c0.3,1.1,1.7,1.4,2.5,0.6l6.3-5.8l12,8.7
		c0.9,0.6,2.1,0.2,2.5-0.9l8.3-35.5C66.7,23.5,64.4,21.5,62.1,22.4L62.1,22.4z M37.3,48.1l-1.4,8l-3.1-11l29.9-19.6L37.3,48.1z"/>
</g>
</svg>
