<?xml version="1.0" encoding="utf-8"?>
<!-- Generator: Adobe Illustrator 27.0.1, SVG Export Plug-In . SVG Version: 6.00 Build 0)  -->
<svg version="1.1" id="Layer_1" xmlns="http://www.w3.org/2000/svg" xmlns:xlink="http://www.w3.org/1999/xlink" x="0px" y="0px"
	 viewBox="0 0 50 100" style="enable-background:new 0 0 50 100;" xml:space="preserve">
<style type="text/css">
	.st0{fill:#21262D;}
	.st1{fill:#e6edf3;}
	.st2{fill-rule:evenodd;clip-rule:evenodd;fill:#e6edf3;}
</style>
<g id="WhatsApp-5_00000036960890179479584950000006876766707049398698_">
	<g id="back-37_00000160888097755794415570000014887181837961572757_">
		<path class="st0" d="M0,39.4C0,34.2,4.2,30,9.4,30h21.2c5.2,0,9.4,4.2,9.4,9.4v21.2c0,5.2-4.2,9.4-9.4,9.4H9.4
			C4.2,70,0,65.8,0,60.6V39.4z"/>
	</g>
	<g id="whatsApp-6_00000018934851013517107840000016549410383769328317_">
		<path class="st1" d="M8.8,61.2l1.6-5.8c-3.1-5.3-1.2-12.1,4.1-15.2s12.1-1.2,15.2,4.1c3.1,5.3,1.2,12.1-4.1,15.2
			c-1.7,1-3.6,1.5-5.6,1.5l0,0c-1.9,0-3.7-0.5-5.3-1.4L8.8,61.2z M15,57.7l0.3,0.2c1.4,0.8,3.1,1.3,4.7,1.3l0,0
			c5.1,0,9.3-4.1,9.3-9.3c0-2.4-1-4.8-2.7-6.5c-1.7-1.7-4.1-2.7-6.5-2.7c-5.1,0-9.3,4.1-9.3,9.3c0,1.7,0.5,3.4,1.4,4.9l0.2,0.3
			l-0.9,3.4L15,57.7z"/>
		<path class="st2" d="M25.7,52.5c-0.1-0.1-0.2-0.2-0.5-0.3c-0.3-0.1-1.6-0.8-1.9-0.9s-0.4-0.1-0.6,0.1c-0.2,0.3-0.7,0.9-0.9,1.1
			c-0.1,0.2-0.3,0.2-0.6,0.1c-0.8-0.3-1.6-0.8-2.3-1.4c-0.6-0.6-1.1-1.2-1.6-1.9c-0.1-0.2-0.1-0.4,0.1-0.6l0,0
			c0.1-0.1,0.3-0.3,0.4-0.5c0.1-0.1,0.2-0.3,0.3-0.5c0.1-0.1,0.1-0.3,0-0.5s-0.6-1.5-0.8-2.1s-0.5-0.5-0.6-0.5s-0.3,0-0.5,0
			c-0.3,0-0.6,0.1-0.8,0.3c-0.7,0.6-1,1.5-1,2.3c0,1.4,1,2.7,1.1,2.9c0.1,0.2,2,3,4.8,4.2c0.5,0.2,1,0.4,1.6,0.6
			c0.6,0.2,1.2,0.2,1.7,0.1c0.5-0.1,1.6-0.7,1.9-1.3C25.7,53.5,25.8,53,25.7,52.5z"/>
	</g>
</g>
</svg>
