<?xml version="1.0" encoding="utf-8"?>
<!-- Generator: Adobe Illustrator 27.0.1, SVG Export Plug-In . SVG Version: 6.00 Build 0)  -->
<svg version="1.1" id="Layer_1" xmlns="http://www.w3.org/2000/svg" xmlns:xlink="http://www.w3.org/1999/xlink" x="0px" y="0px"
	 viewBox="0 0 85 85" style="enable-background:new 0 0 85 85;" xml:space="preserve">
<style type="text/css">
	.st0{fill:#E6EDF3;}
	.st1{fill:#0D1117;}
	.st2{fill-rule:evenodd;clip-rule:evenodd;fill:#0D1117;}

        @media (prefers-color-scheme: light) {
		.st0{fill:#0D1117;}
		.st1{fill:#E6EDF3;}
		.st2{fill-rule:evenodd;clip-rule:evenodd;fill:#E6EDF3;}
        }
</style>
<g id="WhatsApp-5_00000036960890179479584950000006876766707049398698_">
	<g id="back-37_00000160888097755794415570000014887181837961572757_">
		<path class="st0" d="M0,20C0,9,9,0,20,0h45c11,0,20,9,20,20v45c0,11-9,20-20,20H20C9,85,0,76,0,65V20z"/>
	</g>
	<g id="whatsApp-6_00000018934851013517107840000016549410383769328317_">
		<path class="st1" d="M18.7,66.4l3.4-12.3c-6.5-11.3-2.6-25.8,8.7-32.4c11.3-6.5,25.8-2.6,32.4,8.7c6.5,11.3,2.6,25.8-8.7,32.4
			c-3.6,2.1-7.7,3.2-11.8,3.2l0,0c-4,0-7.9-1-11.3-2.9L18.7,66.4z M31.8,58.8l0.7,0.4c3,1.8,6.5,2.7,10,2.8l0,0
			c10.9,0,19.7-8.8,19.7-19.7c0-5.2-2.1-10.2-5.8-13.9c-3.7-3.7-8.7-5.8-13.9-5.8c-10.9,0-19.7,8.8-19.7,19.7c0,3.7,1,7.3,3,10.5
			l0.5,0.7l-2,7.3L31.8,58.8z"/>
		<path class="st2" d="M54.5,47.9c-0.2-0.2-0.5-0.4-1.1-0.7s-3.5-1.7-4.1-1.9S48.4,45,48,45.6c-0.4,0.6-1.5,1.9-1.9,2.3
			s-0.7,0.4-1.3,0.1c-1.7-0.7-3.4-1.7-4.8-2.9c-1.3-1.2-2.4-2.6-3.3-4.1c-0.3-0.4-0.2-0.9,0.2-1.2c0,0,0,0,0,0
			c0.3-0.3,0.6-0.7,0.9-1c0.2-0.3,0.4-0.6,0.6-1c0.2-0.3,0.2-0.7,0-1c-0.2-0.3-1.3-3.2-1.8-4.4s-1-1-1.3-1s-0.7,0-1.1,0
			c-0.6,0-1.2,0.3-1.6,0.7c-1.4,1.3-2.1,3.1-2.1,4.9c0,2.9,2.1,5.7,2.4,6.1s4.2,6.4,10.1,8.9c1.1,0.5,2.2,0.9,3.4,1.2
			c1.2,0.4,2.5,0.4,3.7,0.2c1.1-0.2,3.5-1.4,4-2.8C54.6,49.9,54.7,48.9,54.5,47.9z"/>
	</g>
</g>
</svg>
