<?xml version="1.0" encoding="utf-8"?>
<!-- Generator: Adobe Illustrator 27.0.1, SVG Export Plug-In . SVG Version: 6.00 Build 0)  -->
<svg version="1.1" id="Layer_1" xmlns="http://www.w3.org/2000/svg" xmlns:xlink="http://www.w3.org/1999/xlink" x="0px" y="0px"
	 viewBox="0 0 85 85" style="enable-background:new 0 0 85 85;" xml:space="preserve">
<style type="text/css">
	.st0{fill:#E6EDF3;}
	.st1{fill:#0D1117;}
</style>
<g id="YouTube-5_00000076565584073683585100000001199651132385056434_">
	<g id="back-39_00000150810744514921744140000016144106455214935471_">
		<path class="st0" d="M0,20C0,9,9,0,20,0h45c11,0,20,9,20,20v45c0,11-9,20-20,20H20C9,85,0,76,0,65V20z"/>
	</g>
	<path id="youtube-6_00000180354089415944300540000002994250010587108525_" class="st1" d="M66.3,52c0,3.8-3,6.8-6.8,6.8h-34
		c-3.8,0-6.8-3-6.8-6.8V33c0-3.8,3-6.8,6.8-6.8h34c3.8,0,6.8,3,6.8,6.8V52z M37.6,48.3l12.9-6.7L37.6,35L37.6,48.3z"/>
</g>
</svg>
