<?xml version="1.0" encoding="utf-8"?>
<!-- Generator: Adobe Illustrator 27.0.1, SVG Export Plug-In . SVG Version: 6.00 Build 0)  -->
<svg version="1.1" id="Layer_1" xmlns="http://www.w3.org/2000/svg" xmlns:xlink="http://www.w3.org/1999/xlink" x="0px" y="0px"
	 viewBox="0 0 50 100" style="enable-background:new 0 0 50 100;" xml:space="preserve">
<style type="text/css">
	.st0{fill:#21262D;}
	.st1{fill:#e6edf3;}
</style>
<g id="YouTube-5_00000076565584073683585100000001199651132385056434_">
	<g id="back-39_00000150810744514921744140000016144106455214935471_">
		<path class="st0" d="M0,39.4C0,34.2,4.2,30,9.4,30h21.2c5.2,0,9.4,4.2,9.4,9.4v21.2c0,5.2-4.2,9.4-9.4,9.4H9.4
			C4.2,70,0,65.8,0,60.6V39.4z"/>
	</g>
	<path id="youtube-6_00000180354089415944300540000002994250010587108525_" class="st1" d="M31.2,54.5c0,1.8-1.4,3.2-3.2,3.2H12
		c-1.8,0-3.2-1.4-3.2-3.2v-8.9c0-1.8,1.4-3.2,3.2-3.2h16c1.8,0,3.2,1.4,3.2,3.2V54.5z M17.7,52.7l6.1-3.2l-6.1-3.2V52.7z"/>
</g>
</svg>
